<svg width="220" height="220" xmlns="http://www.w3.org/2000/svg">

 <g>
  <title>Graph</title>
  //Triangle
  <path stroke="#84D3DB" id="svg_48" d="m139.49086,110.32526l-28.49889,28.99892l-0.6594,-29.00002l29.15829,0.0011z" opacity="undefined" fill="#84D3DB"/>
  //Circle
  <path stroke="#000" id="svg_45" d="m110.32526,163.32332c-33.14795,0 -59.99779,-25.2836 -59.99779,-56.49793c0,-31.21433 26.84984,-56.49793 59.99779,-56.49793" opacity="undefined" stroke-width="0" fill="#84D3DB"/>
  //Square
  <path id="svg_41" d="m49.66082,109.82529l59.9978,0l0,59.99781l-59.9978,0l0,-59.99781z" opacity="undefined" stroke-width="0" stroke="#000" fill="#84D3DB"/>
  <path id="svg_1" d="m0,110l220,0" opacity="undefined" stroke="#000" fill="none"/>
  <path id="svg_2" d="m110,0l0,220" opacity="undefined" stroke="#000" fill="none"/>
  <line stroke="#000" id="svg_3" y2="112" x2="50" y1="108" x1="50" fill="none"/>
  <line stroke="#000" id="svg_5" y2="112" x2="80" y1="108" x1="80" fill="none"/>
  <line id="svg_6" y2="112" x2="140" y1="108" x1="140" stroke="#000" fill="none"/>
  <line id="svg_7" y2="112" x2="170" y1="108" x1="170" stroke="#000" fill="none"/>
  <line stroke="#000" id="svg_8" y2="50" x2="112" y1="50" x1="108" fill="none"/>
  <line id="svg_9" y2="80" x2="112" y1="80" x1="108" stroke="#000" fill="none"/>
  <line id="svg_10" y2="140" x2="112" y1="140" x1="108" stroke="#000" fill="none"/>
  <line id="svg_11" y2="170" x2="112" y1="170" x1="108" stroke="#000" fill="none"/>
  <path id="svg_12" d="m107,6.66679l6,0" opacity="undefined" stroke="#000" fill="none"/>
  <line id="svg_13" y2="-0.33322" x2="110.16689" y1="7" x1="107" stroke="#000" fill="none"/>
  <line id="svg_14" y2="7" x2="113" y1="0.33345" x1="110" stroke="#000" fill="none"/>
  <path id="svg_15" d="m111.16059,4.16353" opacity="NaN" stroke="#000" fill="none"/>
  <path d="m108.66066,5.83015c0,-0.16666 0.24937,-0.48462 0.33333,-1.16663c0.04073,-0.33083 0.16666,-0.66665 0.16666,-0.66665c0,-0.16666 0,-0.33332 0,-0.33332c0,-0.16666 0.07647,-0.11557 0.16666,-0.33332c0.06378,-0.15398 0,-0.16666 0,-0.16666c0,0 0.16666,-0.33332 0.16666,-0.49999c0,0 0.04881,0.11785 0.16666,0c0.11785,-0.11785 0,-0.16666 0,-0.16666c0,-0.16666 0,-0.16666 0,-0.16666c-0.16666,0.16666 -0.11543,0.19766 -0.33333,0.49999c-0.13782,0.19121 -0.33332,0.33332 -0.33332,0.33332c0,0.33332 -0.24313,0.44889 -0.33333,0.66665c-0.12756,0.30795 -0.16666,0.49999 -0.16666,0.66665c0,0.16666 -0.16666,0.49999 -0.16666,0.66665c0,0.16666 -0.10288,0.34601 -0.16666,0.49999c-0.09019,0.21776 -0.16666,0.33332 -0.33333,0.49999c0,0 0,0 0,0c0,0 -0.16666,0 -0.16666,0.16666c0,0 -0.16666,0 -0.16666,0c0,0 0,0 0,-0.16666c0,0 0.17935,-0.10289 0.33332,-0.16666c0.21776,-0.0902 0.44875,-0.53099 0.66665,-0.83331c0.27563,-0.38242 0.44875,-0.69765 0.66665,-0.99997c0.13782,-0.19121 0.4098,-0.44889 0.49999,-0.66665c0.06378,-0.15398 0,-0.33332 0,-0.33332c0.16666,-0.16666 0.16666,-0.16666 0.33332,-0.33332c0,0 0,-0.16666 0,-0.16666c0.16666,0 0.16666,-0.16666 0.16666,-0.16666c0,0.16666 0,0.33332 0,0.49999c0,0 0,0.16666 0,0.49999c0,0.16666 0.16666,0.16666 0.16666,0.49999c0,0.16666 0,0.16666 0,0.33332c0,0.33332 0.16666,0.33332 0.16666,0.33332c0,0.16666 0,0.16666 0,0.16666c0,0.16666 0.04881,0.04881 0.16666,0.16666c0.11785,0.11785 0.07905,0.19155 0.16666,0.33332c0.19592,0.31701 0.49998,0.16666 0.49998,0.16666c0,0 0.17935,0.10289 0.33332,0.16666c0.21776,0.0902 0.16666,0.16666 0.33333,0.16666c0,0 0.11785,-0.04881 0,-0.16666c-0.11785,-0.11785 -0.16666,0 -0.33333,-0.16666c0,0 -0.24313,0.05109 -0.33332,-0.16666c-0.12756,-0.30795 -0.16666,-0.49998 -0.33333,-0.66665c-0.16666,-0.16666 -0.16666,-0.33332 -0.16666,-0.49999c0,0 0,-0.16666 0,-0.33332c0,0 -0.16666,-0.33332 -0.16666,-0.49999c0,-0.16666 0.06378,-0.34601 0,-0.49999c-0.09019,-0.21776 -0.16666,-0.16666 -0.16666,-0.16666c0,-0.16666 0,-0.16666 0,0c0,0.16666 0,0.33332 0,0.49999c0,0.16666 0,0.49999 0,0.66665c0,0.16666 0,0.33332 0,0.66665c0,0.16666 0,0.33332 0,0.49999c0,0.16666 0,0.33332 0,0.33332c0,0 0,0 0,0.16666c0,0 0.16666,0 0.16666,0.16666c0,0 0,0 0,0.16666c0,0 0.16666,0.16666 0.16666,0.16666c0,0 0,0.16666 0,0.33332c0,0 0,0 0,0c-0.16666,0 -0.16666,0 -0.16666,0c-0.16666,0 -0.16666,0 -0.33333,0c0,0 0,0 -0.16666,-0.16666c0,0 -0.04881,0.11785 -0.16666,0c-0.11785,-0.11785 0,-0.16666 -0.16666,-0.16666c0,0 -0.16666,0 -0.16666,0c-0.16666,0 -0.16666,-0.16666 -0.16666,-0.16666c-0.16666,0 -0.16666,0 -0.33333,0c0,0 -0.16666,0 -0.33332,0c0,0 -0.16666,0 -0.16666,0c0,-0.16666 0,-0.33332 0,-0.33332c0.16666,-0.16666 0.17935,-0.43621 0.33333,-0.49999c0.21775,-0.0902 0.16666,-0.16666 0.33332,-0.33332c0.16666,-0.16666 0.16666,-0.33332 0.16666,-0.33332c0.16666,0 0.16666,-0.16666 0.16666,-0.16666c0.16666,0 0.04881,-0.21548 0.16666,-0.33332c0.11785,-0.11785 0,0 -0.16666,0.16666c-0.16666,0.16666 -0.19767,0.28208 -0.49999,0.49999c-0.1912,0.13781 -0.16666,0.33332 -0.16666,0.33332c-0.16666,0.33332 -0.16666,0.33332 -0.33333,0.49999c0,0 -0.16666,0.16666 -0.16666,0.16666c0.16666,0 0.16666,0 0.33333,0c0.16666,0 0.16666,-0.16666 0.33332,-0.16666c0.16666,0 0.16666,0 0.33333,-0.16666c0,0 0.16666,0 0.33332,0c0,0 0,0 0,0c-0.16666,0 -0.33332,0 -0.33332,0c-0.16666,0.16666 -0.16666,0.16666 -0.16666,0.16666l-0.16666,0l0,0" id="svg_16" stroke="#000" fill="none"/>
  <path d="m111.49392,5.91348c0,-0.16666 -0.16666,-0.16666 -0.16666,-0.16666c0,0 0,-0.16666 -0.16666,-0.16666c0,0 0,0 0,0c-0.16666,-0.16666 -0.21548,-0.04882 -0.33332,-0.16666c-0.11785,-0.11785 0,-0.16666 0,-0.16666c-0.16666,0 -0.16666,0 -0.33333,-0.16666l-0.16666,0l0,0" id="svg_17" stroke="#000" fill="none"/>
  <path d="m109.16064,6.16348c0.16666,0 0.16666,0 0.33333,0c0,0 0.33332,0 0.49998,0c0.33332,0 0.49998,0 0.66665,0c0.33332,0 0.49998,0 0.66665,0c0,0 0,0 0,0l0.16666,0l0,0l0,0" id="svg_19" stroke="#000" fill="none"/>
  <line id="svg_20" y2="110" x2="220.1576" y1="107" x1="213" stroke="#000" fill="none"/>
  <line id="svg_21" y2="110.24395" x2="219.90761" y1="112.91054" x1="213" stroke="#000" fill="none"/>
  <line id="svg_22" y2="113.24387" x2="212.74114" y1="106.91071" x1="213" stroke="#000" fill="none"/>
  <path d="m215.74106,109.07732c0,0 0,0 0,0.16666c0,0.49998 0.08104,0.47061 0.16666,0.83331c0.03828,0.16221 0,0.33333 0,0.49999c0,0.16666 0,0.33332 0,0.49998c0,0.16666 -0.01268,0.23044 -0.16666,0.16666c-0.21776,-0.09019 -0.27994,-0.33763 -0.33333,-0.66665c-0.08441,-0.52023 -0.16666,-0.83331 -0.16666,-0.83331c0,-0.16666 0,-0.49998 0,-0.83331c0,-0.33332 -0.16667,-0.66665 -0.16667,-0.83331c0,-0.16666 -0.16666,-0.16666 -0.16666,-0.16666c0,-0.16666 0,-0.16666 -0.16667,-0.16666c0,0 0,0 -0.16666,0c0,0 -0.16666,0 -0.16666,0c-0.16667,0 -0.33333,0 -0.33333,0c0,0 0,0 -0.33333,0c0,0 -0.16666,0 -0.16666,0c0,0 0,0 0,0.16666c0,0 0,0 0,0.16666c0,0.16666 0,0.16666 0,0.33332c0,0.16666 0.16666,0.16666 0.16666,0.33333c0,0.16666 0.07646,0.11556 0.16667,0.33332c0.12756,0.30795 0,0.49998 0,0.66665c0,0.16666 0,0.49998 0,0.49998c0,0.16666 0,0.49998 0,0.49998c0,0.16666 0,0.33333 0,0.66665c0,0 0,0.16666 0,0.33333c0,0.16666 0,0.16666 0,0.33332c0,0.16666 0,0.16666 0,0.33333c0,0 0,0 0,0.16666c0,0 0,0 0,0c0,-0.16666 -0.16667,-0.16666 -0.16667,-0.33332c0,-0.16666 0,-0.33333 0,-0.33333c0,0 0,-0.16666 0,-0.16666c0,-0.16666 0,-0.33333 0,-0.33333c0,-0.16666 0,-0.16666 0,-0.33332c0,0 -0.08104,0.02937 -0.16666,-0.33333c-0.03828,-0.1622 0,-0.16666 0,-0.33332c0,0 -0.04881,-0.04882 -0.16666,-0.16666c-0.11784,-0.11785 0,-0.33332 0,-0.33332c0,0 0,-0.16666 0,-0.16666c0,-0.16666 0,-0.16666 0,-0.49998c0,-0.49998 0,-0.66665 0.16666,-0.99998c0,0 -0.06378,-0.01269 0,-0.16666c0.09019,-0.21775 0.16666,-0.33333 0.33333,-0.33333c0,0 0,0.16666 0,0.16666c0,0.16666 0,0.49998 0,0.49998c-0.16667,0.16666 -0.16667,0.33333 -0.16667,0.49998c0,0 0,0.16666 0,0.16666c0,0 0,0.16666 0,0.49998c0,0 0,0.16666 0,0.33333c0,0.16666 0,0.33332 0,0.49998c0,0.16666 0.16667,0.33332 0.16667,0.49998c0,0 0,0.16666 0,0.16666c0.16666,0 0.16666,0 0.16666,0l0.16666,0l0.16667,0" id="svg_23" stroke="#000" fill="none"/>
  <path d="m213.90778,111.41058c0,0 0,-0.16666 0,-0.16666c0,-0.16666 0,-0.16666 0,-0.33333c0,0 0,-0.16666 0,-0.33332c0,0 -0.07658,-0.17558 0,-0.49999c0.08562,-0.36269 0.16666,-0.66665 0.16666,-1.16663c0,-0.16666 0,-0.33332 0,-0.33332l0,0l0,0" id="svg_24" stroke="#000" fill="none"/>
  <path d="m213.7411,111.57725c0,-0.16666 0.14214,-0.19551 0.33333,-0.33332c0.30232,-0.2179 0.4838,-0.20403 0.83331,-0.33333c0.64447,-0.23841 1.01265,-0.26955 1.16663,-0.33332c0.21776,-0.09019 0.34602,-0.10288 0.5,-0.16666c0.21776,-0.09019 0.33331,-0.16666 0.33331,-0.16666c0,0.16666 0.02455,0.19552 -0.16666,0.33333c-0.30232,0.2179 -0.28223,0.40979 -0.49998,0.49998c-0.15398,0.06378 -0.49998,0.16666 -0.49998,0.16666c-0.16667,0.16666 -0.16667,0.16666 -0.33333,0.16666c0,0 0,0 -0.16666,0c-0.16667,0 -0.16667,0 -0.33333,0c0,0 -0.16667,0 -0.16667,0c-0.16666,0 -0.16666,0 -0.16666,0c-0.16666,0 -0.16666,0 -0.16666,0c0,0 0.17934,0.06377 0.33331,0c0.21776,-0.09019 0.3587,-0.37242 0.66666,-0.49998c0.21776,-0.09019 0.30396,-0.2477 0.66664,-0.33332c0.16222,-0.03829 0.33333,0 0.66666,0c0,0 0.16666,-0.16666 0.33333,-0.16666c0,0 0.16666,0 0.16666,0c0,-0.16666 0.04881,-0.04882 0.16666,-0.16666c0.11784,-0.11785 0.16667,-0.33332 0.16667,-0.33332c0,-0.16666 0.16666,-0.16666 0.16666,-0.16666c0,-0.16666 0,-0.16666 0,-0.16666c0,-0.16666 0,-0.16666 -0.16666,-0.16666c0,0 0.05109,-0.07646 -0.16667,-0.16666c-0.15398,-0.06377 -0.33331,0 -0.33331,0c0,0 -0.16667,0 -0.16667,0c0,0 -0.16666,0 -0.16666,0c-0.16666,0 -0.16666,0 -0.33333,0c0,0 0,0 -0.16666,-0.16666c0,0 -0.16667,0 -0.16667,0c0,0 -0.16666,0 -0.16666,0c0,0 -0.16666,0 -0.16666,0c-0.16667,0 -0.21548,-0.04881 -0.33333,-0.16666c-0.11784,-0.11784 -0.33333,0 -0.33333,0c-0.16666,-0.16666 -0.16666,-0.16666 -0.16666,-0.16666c-0.16667,0 -0.16667,0 -0.16667,0c0,0 0.12755,0.02537 0,0.33332c-0.09019,0.21775 -0.16666,0.16666 -0.16666,0.33332c0,0.16666 0,0.33333 0,0.49999c0,0 0,0 0,0.16666c0,0 0,0 0,0.16666c0,0 0,0 -0.16666,0.16666c0,0 0.11784,0.21548 0,0.33332c-0.11786,0.11785 -0.16667,0.16666 -0.16667,0.33333c0,0 0,0.16666 0,0.16666c0,0.16666 0,0.16666 0,0.16666c0,-0.16666 0.08104,-0.30394 0.16667,-0.66665c0.03828,-0.1622 0.16666,-0.49998 0.16666,-0.49998c0,-0.16666 0.21547,-0.38213 0.33333,-0.49998c0.11784,-0.11785 0.11557,-0.40979 0.33333,-0.49998c0.15398,-0.06377 0.21547,-0.04881 0.33331,-0.16666c0.11786,-0.11785 0.16667,0 0.16667,0c0.16666,0 0.33331,0 0.33331,0c0.16667,0 0.16667,0 0.33333,0c0.16667,0 0.16667,0 0.33333,0c0.16666,0 0.33333,0 0.33333,0c0,0 0.16666,0 0.16666,0c0,0.16666 0,0.16666 0,0.16666c0,0.16666 0.16666,0.16666 0.16666,0.16666c0,0.16666 0,0.16666 0,0.33333c0,0.16666 0,0.16666 0,0.16666c0,0.16666 0,0.16666 0,0.33332c0,0 0.11784,0.04881 0,0.16666c-0.11784,0.11784 -0.2457,0.19155 -0.33331,0.33332c-0.19592,0.31702 -0.38214,0.21548 -0.49998,0.33333c-0.11786,0.11785 -0.5,0 -0.66666,0c-0.16666,0 -0.49998,0 -0.66664,0c0,0 -0.2643,-0.23569 -0.5,0c-0.11784,0.11785 -0.16666,0.16666 -0.49998,0.16666c-0.16666,0 -0.16666,0.16666 -0.33331,0.16666c-0.16667,0 -0.16667,0 -0.33333,0c0,0 0,0 -0.16666,0c0,0 -0.04881,0.11785 -0.16667,0c-0.23569,-0.23569 0,-0.49998 0,-0.99997c0,-0.16666 0,-0.33333 0,-0.49998c0,-0.16666 -0.11784,-0.21548 0,-0.33333c0.11786,-0.11785 0.16667,-0.16666 0.33333,-0.33332c0,0 0,-0.16666 0,-0.16666c0,-0.16666 0,-0.16666 0,-0.16666c0,0 0,-0.16666 0,-0.16666c0,0 0,-0.16666 0,-0.16666c0,0 0,-0.16666 0,-0.16666c0,0 -0.04881,-0.04882 -0.16666,-0.16666c-0.11784,-0.11784 0,-0.16666 0,-0.16666c0,-0.16666 0,-0.16666 -0.16667,-0.33333c0,0 0,0 0,-0.16666c0,0 0,-0.16666 0,-0.33332c0,0 -0.16666,0 -0.16666,0c0,-0.16666 0,-0.16666 0,-0.16666c0,0 0,0.16666 0,0.16666l-0.16667,0l0,0" id="svg_26" stroke="#000" fill="none"/>
  <path d="m214.74107,109.74397c0,0 0,-0.16666 0,-0.16666c0,-0.16666 0,-0.16666 0,-0.33332c0,-0.16666 0,-0.16666 0,-0.16666c0,-0.16666 0.06378,-0.17935 0,-0.33332c-0.09019,-0.21775 -0.16666,-0.16666 -0.16666,-0.16666c-0.16666,-0.16666 -0.16666,-0.16666 -0.16666,-0.16666c0,-0.16666 -0.16667,-0.16666 -0.16667,-0.16666l0,0l0,-0.16666l0,0" id="svg_28" stroke="#000" fill="none"/>
  <text xml:space="preserve" font-family="Noto Sans JP" font-size="8" stroke-width="0" id="svg_29" y="6.16699" x="113.83395" stroke="#000" fill="#000000">Y</text>
  <text xml:space="preserve" font-family="Noto Sans JP" font-size="8" stroke-width="0" id="svg_31" y="121" x="215" stroke="#000" fill="#000000">X</text>
  //Обозначения по оси X
  <text class="x-axis-minus-r" xml:space="preserve" font-family="Noto Sans JP" font-size="7" id="svg_32" y="105" x="46" stroke-width="0" stroke="#000" fill="#000000">-R</text>
  <text class="x-axis-minus-half-r" xml:space="preserve" font-family="Noto Sans JP" font-size="7" id="svg_33" y="105" x="73" stroke-width="0" stroke="#000" fill="#000000">-R/2</text>
  <text class="x-axis-plus-half-r" xml:space="preserve" font-family="Noto Sans JP" font-size="7" id="svg_34" y="105" x="135" stroke-width="0" stroke="#000" fill="#000000">R/2</text>
  <text class="x-axis-plus-r" xml:space="preserve" font-family="Noto Sans JP" font-size="7" id="svg_35" y="105" x="168" stroke-width="0" stroke="#000" fill="#000000">R</text>
  //Обозначения по оси Y
  <text class="y-axis-plus-r" xml:space="preserve" font-family="Noto Sans JP" font-size="7" id="svg_37" y="52" x="115" stroke-width="0" stroke="#000" fill="#000000">R</text>
  <text class="y-axis-plus-half-r" xml:space="preserve" font-family="Noto Sans JP" font-size="7" id="svg_38" y="82" x="115" stroke-width="0" stroke="#000" fill="#000000">R/2</text>
  <text class="y-axis-minus-half-r" xml:space="preserve" font-family="Noto Sans JP" font-size="7" id="svg_39" y="142" x="115" stroke-width="0" stroke="#000" fill="#000000">-R/2</text>
  <text class="y-axis-minus-r" xml:space="preserve" font-family="Noto Sans JP" font-size="7" id="svg_40" y="172" x="115" stroke-width="0" stroke="#000" fill="#000000">-R</text>
  <path id="svg_43" d="m49.66082,109.65862" opacity="NaN" stroke-width="0" stroke="#000" fill="#84D3DB"/>
 </g>
</svg>